<?xml version="1.0" encoding="UTF-8" standalone="no"?>
<svg
   version="1.1"
   width="502.89062"
   height="408.00024"
   style="clip-rule:evenodd;fill-rule:evenodd;image-rendering:optimizeQuality;shape-rendering:geometricPrecision;text-rendering:geometricPrecision"
   id="svg856"
   sodipodi:docname="logo-small.svg"
   inkscape:version="1.1.2 (b8e25be8, 2022-02-05)"
   xmlns:inkscape="http://www.inkscape.org/namespaces/inkscape"
   xmlns:sodipodi="http://sodipodi.sourceforge.net/DTD/sodipodi-0.dtd"
   xmlns="http://www.w3.org/2000/svg"
   xmlns:svg="http://www.w3.org/2000/svg">
  <defs
     id="defs860" />
  <sodipodi:namedview
     id="namedview858"
     pagecolor="#ffffff"
     bordercolor="#666666"
     borderopacity="1.0"
     inkscape:pageshadow="2"
     inkscape:pageopacity="0.0"
     inkscape:pagecheckerboard="0"
     showgrid="false"
     fit-margin-top="0"
     fit-margin-left="0"
     fit-margin-right="0"
     fit-margin-bottom="0"
     inkscape:zoom="0.75931982"
     inkscape:cx="369.40956"
     inkscape:cy="285.78208"
     inkscape:window-width="1312"
     inkscape:window-height="916"
     inkscape:window-x="0"
     inkscape:window-y="38"
     inkscape:window-maximized="0"
     inkscape:current-layer="svg856" />
  <g
     id="g834"
     transform="translate(-701.74439,-9.5)">
    <path
       style="opacity:0.976"
       fill="#0080ff"
       d="m 730.5,9.5 c 12.375,9.1892 24.375,18.8558 36,29 -30.882,74.452 -26.049,146.452 14.5,216 16.914,25.581 37.914,47.248 63,65 -1.893,7.688 -4.226,15.355 -7,23 -2.177,7.059 -5.011,13.725 -8.5,20 C 755.024,315.287 713.19,247.954 703,160.5 698.157,107.552 707.324,57.219 730.5,9.5 Z"
       id="path832" />
  </g>
  <g
     id="g838"
     transform="translate(-701.74439,-9.5)">
    <path
       style="opacity:0.977"
       fill="#0080ff"
       d="m 1174.5,9.5 c 8.18,13.3346 14.34,27.6679 18.5,43 24.87,90.134 9.87,172.8 -45,248 -19.64,25.146 -43.14,45.813 -70.5,62 -5.87,-13.749 -11.2,-27.749 -16,-42 71,-51.697 103.5,-121.697 97.5,-210 -2.53,-25.2717 -9.03,-49.4384 -19.5,-72.5 11.74,-9.5189 23.4,-19.0189 35,-28.5 z"
       id="path836" />
  </g>
  <g
     id="g846"
     transform="translate(-701.74439,-9.5)">
    <path
       style="opacity:0.945"
       fill="#0080ff"
       d="m 1077.5,87.5 c 18.15,52.751 8.32,99.751 -29.5,141 -4.69,4.189 -9.52,8.189 -14.5,12 -3.03,-6.065 -5.7,-12.398 -8,-19 36,-32.677 48,-72.677 36,-120 5.65,-4.3165 10.98,-8.9832 16,-14 z"
       id="path844" />
  </g>
  <g
     id="g850"
     transform="translate(-701.74439,-9.5)">
    <path
       style="opacity:0.949"
       fill="#0080ff"
       d="m 827.5,88.5 c 6.26,3.9247 11.927,8.5914 17,14 -9.122,34.311 -3.956,66.311 15.5,96 6.474,8.141 13.307,15.974 20.5,23.5 -2.118,6.361 -4.618,12.527 -7.5,18.5 -41.733,-33.841 -58.733,-77.508 -51,-131 1.369,-7.143 3.202,-14.1428 5.5,-21 z"
       id="path848" />
  </g>
  <g
     id="g854"
     transform="translate(-701.74439,-9.5)">
    <path
       style="opacity:0.988"
       fill="#0080ff"
       d="m 946.5,97.5 c 30.475,-1.0251 44.975,13.642 43.5,44 -0.91,5.151 -2.91,9.818 -6,14 -3.375,3.544 -6.875,6.877 -10.5,10 25.155,80.954 50.15,161.954 75,243 -1.5,1.922 -3.5,3.088 -6,3.5 -15.52,2.887 -31.19,4.554 -47,5 -27.333,0.667 -54.667,0.667 -82,0 -16.898,-0.273 -33.565,-2.273 -50,-6 -1.41,-0.368 -2.41,-1.201 -3,-2.5 24.907,-81.219 49.907,-162.385 75,-243.5 -14.063,-9.507 -19.563,-22.674 -16.5,-39.5 4.016,-14.515 13.183,-23.848 27.5,-28 z"
       id="path852" />
  </g>
</svg>
