<?xml version="1.0" standalone="no"?>
<!DOCTYPE svg PUBLIC "-//W3C//DTD SVG 20010904//EN"
 "http://www.w3.org/TR/2001/REC-SVG-20010904/DTD/svg10.dtd">
<svg version="1.0" xmlns="http://www.w3.org/2000/svg"
 width="632.000000pt" height="632.000000pt" viewBox="0 0 632.000000 632.000000"
 preserveAspectRatio="xMidYMid meet">
<metadata>
Created by potrace 1.14, written by Peter Selinger 2001-2017
</metadata>
<g transform="translate(0.000000,632.000000) scale(0.100000,-0.100000)"
fill="#000000" stroke="none">
<path d="M403 5989 c4 -96 10 -263 13 -371 l7 -198 82 0 c415 0 892 -149 1251
-391 251 -169 486 -415 651 -680 153 -245 272 -571 319 -874 24 -155 24 -460
0 -620 -108 -721 -524 -1328 -1145 -1669 -325 -179 -727 -286 -1072 -286 l-77
0 -6 -258 c-3 -141 -8 -308 -11 -371 l-6 -114 178 6 c714 26 1395 303 1927
785 229 207 451 491 602 769 21 40 41 73 44 73 3 0 18 -25 35 -57 53 -101 164
-273 249 -387 538 -712 1387 -1151 2289 -1183 l178 -6 -6 114 c-3 63 -8 230
-11 372 l-6 257 -77 0 c-621 0 -1279 306 -1688 784 -280 328 -466 740 -529
1171 -24 164 -24 460 0 615 98 643 451 1209 970 1559 359 242 836 391 1251
391 l82 0 7 198 c3 108 9 275 13 371 l6 174 -174 -6 c-529 -18 -1019 -163
-1472 -435 -441 -264 -821 -658 -1062 -1100 -27 -51 -52 -92 -55 -92 -3 0 -27
41 -55 92 -288 525 -739 954 -1290 1223 -407 200 -794 297 -1244 312 l-174 6
6 -174z"/>
</g>
</svg>
