<?xml version="1.0" encoding="UTF-8"?>
<!DOCTYPE svg PUBLIC "-//W3C//DTD SVG 1.1//EN" "http://www.w3.org/Graphics/SVG/1.1/DTD/svg11.dtd">
<svg xmlns="http://www.w3.org/2000/svg" version="1.1" width="1529px" height="428px" style="shape-rendering:geometricPrecision; text-rendering:geometricPrecision; image-rendering:optimizeQuality; fill-rule:evenodd; clip-rule:evenodd" xmlns:xlink="http://www.w3.org/1999/xlink">
<g><path style="opacity:0.983" fill="#000000" d="M 148.5,9.5 C 189.331,8.60822 225.331,21.1082 256.5,47C 273.492,63.9722 286.492,83.6388 295.5,106C 295.095,106.945 294.428,107.612 293.5,108C 268.068,115.525 242.735,123.358 217.5,131.5C 210.805,114.644 200.471,100.477 186.5,89C 172.149,80.9792 156.816,78.3125 140.5,81C 127.967,82.1697 117.467,87.3363 109,96.5C 100.197,111.798 102.031,125.631 114.5,138C 125.187,145.347 136.521,151.681 148.5,157C 166.277,164.555 184.277,171.555 202.5,178C 227.127,188.637 249.794,202.303 270.5,219C 292.007,240.206 302.341,266.039 301.5,296.5C 298.576,365.932 262.576,405.432 193.5,415C 139.874,423.116 91.8742,410.45 49.5,377C 31.5961,360.259 18.2627,340.425 9.5,317.5C 9.81777,316.353 10.4844,315.519 11.5,315C 34.2079,305.264 56.8746,295.431 79.5,285.5C 85.8182,296.8 92.6516,307.8 100,318.5C 116.062,337.446 136.562,347.113 161.5,347.5C 176.936,347.559 191.269,343.725 204.5,336C 216.439,325.523 221.272,312.356 219,296.5C 217.277,287.884 213.11,280.717 206.5,275C 198.435,269.272 190.101,263.939 181.5,259C 155.997,247.61 130.331,236.61 104.5,226C 86.3343,217.425 69.3343,207.091 53.5,195C 31.7769,174.862 21.1102,149.862 21.5,120C 21.8472,85.3467 35.8472,57.6801 63.5,37C 89.1155,19.2945 117.449,10.1278 148.5,9.5 Z"/></g>
<g><path style="opacity:0.985" fill="#000000" d="M 348.5,9.5 C 377.167,9.5 405.833,9.5 434.5,9.5C 434.333,94.834 434.5,180.167 435,265.5C 434.968,283.007 438.634,299.674 446,315.5C 455.553,330.682 469.386,338.849 487.5,340C 501.601,341.094 515.601,340.427 529.5,338C 552.598,331.562 565.764,316.396 569,292.5C 569.83,287.857 570.497,283.19 571,278.5C 571.5,188.834 571.667,99.1673 571.5,9.5C 600.5,9.5 629.5,9.5 658.5,9.5C 658.667,97.1673 658.5,184.834 658,272.5C 651.233,368.326 599.733,415.992 503.5,415.5C 462.368,417.562 425.702,406.062 393.5,381C 365.229,353.271 350.396,319.438 349,279.5C 348.5,189.501 348.333,99.5006 348.5,9.5 Z"/></g>
<g><path style="opacity:0.976" fill="#0080ff" d="M 730.5,9.5 C 742.875,18.6892 754.875,28.3558 766.5,38.5C 735.618,112.952 740.451,184.952 781,254.5C 797.914,280.081 818.914,301.748 844,319.5C 842.107,327.188 839.774,334.855 837,342.5C 834.823,349.559 831.989,356.225 828.5,362.5C 755.024,315.287 713.19,247.954 703,160.5C 698.157,107.552 707.324,57.219 730.5,9.5 Z"/></g>
<g><path style="opacity:0.977" fill="#0080ff" d="M 1174.5,9.5 C 1182.68,22.8346 1188.84,37.1679 1193,52.5C 1217.87,142.634 1202.87,225.3 1148,300.5C 1128.36,325.646 1104.86,346.313 1077.5,362.5C 1071.63,348.751 1066.3,334.751 1061.5,320.5C 1132.5,268.803 1165,198.803 1159,110.5C 1156.47,85.2283 1149.97,61.0616 1139.5,38C 1151.24,28.4811 1162.9,18.9811 1174.5,9.5 Z"/></g>
<g><path style="opacity:0.983" fill="#000000" d="M 1350.5,10.5 C 1394.01,6.04088 1433.34,16.5409 1468.5,42C 1489.22,59.8876 1504.22,81.7209 1513.5,107.5C 1487.79,114.958 1462.13,122.624 1436.5,130.5C 1435.56,130.392 1434.72,130.059 1434,129.5C 1415.38,83.1788 1382.88,69.3454 1336.5,88C 1321.16,99.1924 1317.66,113.359 1326,130.5C 1328.83,133.333 1331.67,136.167 1334.5,139C 1345.69,146.096 1357.35,152.429 1369.5,158C 1386.68,165.059 1404.01,171.726 1421.5,178C 1449.89,189.751 1475.06,206.251 1497,227.5C 1508.67,242.498 1515.67,259.498 1518,278.5C 1523.25,360.922 1484.75,406.422 1402.5,415C 1354.53,420.226 1311.19,408.56 1272.5,380C 1252.48,362.475 1237.48,341.309 1227.5,316.5C 1250.72,305.082 1274.39,294.415 1298.5,284.5C 1306.18,302.376 1317.18,317.876 1331.5,331C 1352.88,345.418 1376.21,349.751 1401.5,344C 1430.43,336.741 1441.59,318.574 1435,289.5C 1432.03,282.525 1427.53,276.692 1421.5,272C 1410.32,264.575 1398.66,257.908 1386.5,252C 1362.49,242.827 1338.82,232.827 1315.5,222C 1294.63,212.148 1276.13,198.982 1260,182.5C 1242.27,157.171 1236.27,129.171 1242,98.5C 1249.59,67.2432 1267.42,43.7432 1295.5,28C 1312.89,18.8112 1331.23,12.9778 1350.5,10.5 Z"/></g>
<g><path style="opacity:0.945" fill="#0080ff" d="M 1077.5,87.5 C 1095.65,140.251 1085.82,187.251 1048,228.5C 1043.31,232.689 1038.48,236.689 1033.5,240.5C 1030.47,234.435 1027.8,228.102 1025.5,221.5C 1061.5,188.823 1073.5,148.823 1061.5,101.5C 1067.15,97.1835 1072.48,92.5168 1077.5,87.5 Z"/></g>
<g><path style="opacity:0.949" fill="#0080ff" d="M 827.5,88.5 C 833.76,92.4247 839.427,97.0914 844.5,102.5C 835.378,136.811 840.544,168.811 860,198.5C 866.474,206.641 873.307,214.474 880.5,222C 878.382,228.361 875.882,234.527 873,240.5C 831.267,206.659 814.267,162.992 822,109.5C 823.369,102.357 825.202,95.3572 827.5,88.5 Z"/></g>
<g><path style="opacity:0.988" fill="#0080ff" d="M 946.5,97.5 C 976.975,96.4749 991.475,111.142 990,141.5C 989.09,146.651 987.09,151.318 984,155.5C 980.625,159.044 977.125,162.377 973.5,165.5C 998.655,246.454 1023.65,327.454 1048.5,408.5C 1047,410.422 1045,411.588 1042.5,412C 1026.98,414.887 1011.31,416.554 995.5,417C 968.167,417.667 940.833,417.667 913.5,417C 896.602,416.727 879.935,414.727 863.5,411C 862.09,410.632 861.09,409.799 860.5,408.5C 885.407,327.281 910.407,246.115 935.5,165C 921.437,155.493 915.937,142.326 919,125.5C 923.016,110.985 932.183,101.652 946.5,97.5 Z"/></g>
</svg>
