<?xml version="1.0" encoding="UTF-8" standalone="no"?>
<svg
   xmlns:dc="http://purl.org/dc/elements/1.1/"
   xmlns:cc="http://creativecommons.org/ns#"
   xmlns:rdf="http://www.w3.org/1999/02/22-rdf-syntax-ns#"
   xmlns:svg="http://www.w3.org/2000/svg"
   xmlns="http://www.w3.org/2000/svg"
   xmlns:xlink="http://www.w3.org/1999/xlink"
   xmlns:sodipodi="http://sodipodi.sourceforge.net/DTD/sodipodi-0.dtd"
   xmlns:inkscape="http://www.inkscape.org/namespaces/inkscape"
   version="1.0"
   id="svg2"
   height="78.963501"
   width="212.27"
   sodipodi:docname="logo.svg"
   inkscape:version="0.92.4 5da689c313, 2019-01-14">
  <sodipodi:namedview
     pagecolor="#ffffff"
     bordercolor="#666666"
     borderopacity="1"
     objecttolerance="10"
     gridtolerance="10"
     guidetolerance="10"
     inkscape:pageopacity="0"
     inkscape:pageshadow="2"
     inkscape:window-width="956"
     inkscape:window-height="1041"
     id="namedview862"
     showgrid="false"
     showguides="true"
     inkscape:zoom="1.4142136"
     inkscape:cx="115.48176"
     inkscape:cy="-58.776511"
     inkscape:window-x="960"
     inkscape:window-y="18"
     inkscape:window-maximized="0"
     inkscape:current-layer="g3065" />
  <defs
     id="defs4">
    <inkscape:path-effect
       effect="spiro"
       id="path-effect1016"
       is_visible="true" />
    <inkscape:path-effect
       effect="spiro"
       id="path-effect1012"
       is_visible="true" />
    <inkscape:path-effect
       effect="spiro"
       id="path-effect1008"
       is_visible="true" />
    <inkscape:path-effect
       effect="spiro"
       id="path-effect982"
       is_visible="true" />
    <inkscape:path-effect
       effect="spiro"
       id="path-effect960"
       is_visible="true" />
    <linearGradient
       id="linearGradient7063">
      <stop
         style="stop-color: rgb(0, 143, 255); stop-opacity: 0;"
         offset="0"
         id="stop7065" />
      <stop
         id="stop7067"
         offset="0.482143"
         style="stop-color: rgb(0, 143, 255); stop-opacity: 0;" />
      <stop
         style="stop-color: rgb(0, 0, 0); stop-opacity: 1;"
         offset="0.482143"
         id="stop7069" />
      <stop
         style="stop-color: rgb(0, 0, 0); stop-opacity: 1;"
         offset="1"
         id="stop7071" />
    </linearGradient>
    <linearGradient
       id="linearGradient5050">
      <stop
         id="stop5052"
         offset="0"
         style="stop-color: rgb(0, 143, 255); stop-opacity: 0;" />
      <stop
         style="stop-color: rgb(0, 143, 255); stop-opacity: 0;"
         offset="0.482143"
         id="stop5062" />
      <stop
         id="stop5064"
         offset="0.482143"
         style="stop-color: rgb(0, 143, 255); stop-opacity: 1;" />
      <stop
         id="stop5060"
         offset="1"
         style="stop-color: rgb(0, 143, 255); stop-opacity: 1;" />
    </linearGradient>
    <linearGradient
       id="linearGradient4657">
      <stop
         id="stop4659"
         offset="0"
         style="stop-color: rgb(0, 143, 255); stop-opacity: 1;" />
      <stop
         style="stop-color: rgb(0, 143, 255); stop-opacity: 1;"
         offset="0.535714"
         id="stop4665" />
      <stop
         id="stop4667"
         offset="0.535714"
         style="stop-color: rgb(0, 143, 255); stop-opacity: 0;" />
      <stop
         id="stop4661"
         offset="1"
         style="stop-color: rgb(0, 143, 255); stop-opacity: 0;" />
    </linearGradient>
    <linearGradient
       gradientUnits="userSpaceOnUse"
       y2="258.38199"
       x2="109.129"
       y1="258.38199"
       x1="64.617203"
       id="linearGradient4663"
       xlink:href="#linearGradient4657" />
    <linearGradient
       gradientUnits="userSpaceOnUse"
       y2="258.38199"
       x2="109.129"
       y1="258.38199"
       x1="64.617203"
       id="linearGradient5056"
       xlink:href="#linearGradient5050" />
    <linearGradient
       gradientUnits="userSpaceOnUse"
       y2="305.60699"
       x2="58.769798"
       y1="305.60699"
       x1="31.386299"
       id="linearGradient5897"
       xlink:href="#linearGradient7063" />
    <linearGradient
       y2="305.60699"
       x2="58.769798"
       y1="305.60699"
       x1="31.386299"
       gradientUnits="userSpaceOnUse"
       id="linearGradient7073"
       xlink:href="#linearGradient7063" />
    <linearGradient
       y2="305.60699"
       x2="58.769798"
       y1="305.60699"
       x1="31.386299"
       gradientUnits="userSpaceOnUse"
       id="linearGradient7463"
       xlink:href="#linearGradient7063" />
    <linearGradient
       y2="305.60699"
       x2="58.769798"
       y1="305.60699"
       x1="31.386299"
       gradientUnits="userSpaceOnUse"
       id="linearGradient7465"
       xlink:href="#linearGradient7063" />
    <linearGradient
       gradientUnits="userSpaceOnUse"
       y2="297.26099"
       x2="142.03799"
       y1="297.26099"
       x1="108.809"
       id="linearGradient7893"
       xlink:href="#linearGradient7063" />
    <linearGradient
       y2="258.38199"
       x2="109.129"
       y1="258.38199"
       x1="64.617203"
       gradientUnits="userSpaceOnUse"
       id="linearGradient3047"
       xlink:href="#linearGradient4657" />
    <linearGradient
       y2="258.38199"
       x2="109.129"
       y1="258.38199"
       x1="64.617203"
       gradientUnits="userSpaceOnUse"
       id="linearGradient3049"
       xlink:href="#linearGradient4657" />
    <linearGradient
       y2="305.60699"
       x2="58.769798"
       y1="305.60699"
       x1="31.386299"
       gradientUnits="userSpaceOnUse"
       id="linearGradient3059"
       xlink:href="#linearGradient7063" />
    <linearGradient
       y2="305.60699"
       x2="58.769798"
       y1="305.60699"
       x1="31.386299"
       gradientUnits="userSpaceOnUse"
       id="linearGradient3061"
       xlink:href="#linearGradient7063" />
    <inkscape:path-effect
       effect="spiro"
       id="path-effect885"
       is_visible="true" />
    <inkscape:path-effect
       effect="spiro"
       id="path-effect885-6"
       is_visible="true" />
    <inkscape:path-effect
       effect="spiro"
       id="path-effect982-6"
       is_visible="true" />
    <inkscape:path-effect
       effect="spiro"
       id="path-effect1016-9"
       is_visible="true" />
    <inkscape:path-effect
       effect="spiro"
       id="path-effect1016-9-2"
       is_visible="true" />
  </defs>
  <metadata
     id="metadata7">
    <rdf:RDF>
      <cc:Work
         rdf:about="">
        <dc:format>image/svg+xml</dc:format>
        <dc:type
           rdf:resource="http://purl.org/dc/dcmitype/StillImage" />
        <dc:title />
      </cc:Work>
      <cc:Work
         rdf:about="">
        <dc:format>image/svg+xml</dc:format>
        <dc:type
           rdf:resource="http://purl.org/dc/dcmitype/StillImage" />
      </cc:Work>
    </rdf:RDF>
  </metadata>
  <g
     transform="translate(-0.233389,-0.129441)"
     id="layer1">
    <path
       style="fill:none;fill-opacity:0;stroke:black;stroke-width:0.88056052;stroke-miterlimit:4;stroke-dasharray:none;stroke-opacity:1"
       d=""
       id="path7955" />
    <g
       id="text1989"
       style="font-style:normal;font-variant:normal;font-weight:normal;font-stretch:normal;line-height:0%;font-family:'Bitstream Vera Sans';text-align:start;writing-mode:lr-tb;text-anchor:start;fill:#000000;fill-opacity:1;stroke:none;stroke-width:1px;stroke-linecap:butt;stroke-linejoin:miter;stroke-opacity:1"
       aria-label=" " />
    <g
       id="g3065">
      <g
         id="text2857"
         style="font-style:normal;font-variant:normal;font-weight:normal;font-stretch:normal;line-height:0%;font-family:OldSansBlack;text-align:start;writing-mode:lr-tb;text-anchor:start;fill:#181c2d;fill-opacity:1;stroke:#181c2d;stroke-width:1px;stroke-linecap:butt;stroke-linejoin:miter;stroke-opacity:1"
         aria-label="S"
         transform="translate(6.0194234)"
         inkscape:export-xdpi="254.93462"
         inkscape:export-ydpi="254.93462">
        <path
           id="path176"
           style="font-size:60px;line-height:1;fill:#181c2d;fill-opacity:1;stroke:#181c2d;stroke-opacity:1"
           d="m 29.706422,59.419431 q 4.2,-3.6 4.2,-10.14 0,-6.06 -4.26,-9.24 -4.02,-3.12 -9.12,-4.86 -3.6,-1.26 -6.48,-2.88 -1.38,-0.78 -1.98,-1.62 -0.54,-0.84 -0.54,-1.74 0,-1.14 0.48,-1.92 0.54,-0.84 1.32,-1.26 0.84,-0.48 1.8,-0.66 1.02,-0.24 1.98,-0.24 3,0 4.62,1.62 1.68,1.56 2.76,4.14 l 8.82,-2.7 q -1.32,-3.06 -2.94,-5.04 -1.62,-1.98 -3.72,-3.24 -4.2,-2.58 -9.48,-2.58 -6.3,0 -10.4999996,3.48 -4.2,3.48 -4.2,8.82 0,5.4 3.6,8.46 3.42,2.82 10.3799996,5.46 3.54,1.32 6.06,3 2.28,1.5 2.28,3.72 0,1.5 -0.54,2.52 -0.54,0.96 -1.5,1.56 -0.9,0.54 -2.1,0.78 -1.2,0.24 -2.46,0.24 -1.8,0 -3.24,-0.48 -1.38,-0.54 -2.46,-1.44 -1.08,-0.9 -1.92,-2.16 -0.8399996,-1.32 -1.5599996,-2.88 l -7.98,3.48 q 1.38,3.24 3.18,5.34 1.8,2.04 4.26,3.36 4.6199996,2.58 9.4799996,2.58 7.56,0 11.76,-3.48 z"
           inkscape:connector-curvature="0" />
      </g>
      <path
         id="path4640"
         d="M 82.89098,39.804839 A 17.035381,18.120212 0 0 1 65.855605,57.925053 17.035381,18.120212 0 0 1 48.820222,39.804839 17.035381,18.120212 0 0 1 65.855605,21.684625 17.035381,18.120212 0 0 1 82.89098,39.804839 Z"
         style="fill:#ff0000;fill-opacity:0;fill-rule:evenodd;stroke:#181c2d;stroke-width:10.25969887;stroke-linecap:butt;stroke-linejoin:miter;stroke-miterlimit:4;stroke-dasharray:none;stroke-opacity:1"
         inkscape:connector-curvature="0"
         inkscape:export-xdpi="254.93462"
         inkscape:export-ydpi="254.93462" />
      <g
         style="stroke:#008fff;stroke-opacity:1"
         transform="matrix(0.93026833,0,0,0.93026833,15.466435,3.1538445)"
         id="g925"
         inkscape:export-xdpi="254.93462"
         inkscape:export-ydpi="254.93462">
        <path
           style="fill:none;stroke:#008fff;stroke-width:4.76508236;stroke-linecap:butt;stroke-linejoin:miter;stroke-miterlimit:4;stroke-dasharray:none;stroke-opacity:1"
           d="m 120.7409,20.42981 c -4.43371,-0.130751 -8.89387,1.567335 -12.11802,4.613607 -3.22415,3.046272 -5.17234,7.403001 -5.29314,11.836994 -0.1208,4.433993 1.58729,8.890335 4.64079,12.107636 3.0535,3.217301 7.41459,5.155715 11.84884,5.266565 0.28181,0.007 0.56381,0.007 0.84562,0"
           id="path883"
           inkscape:connector-curvature="0"
           inkscape:path-effect="#path-effect885"
           inkscape:original-d="m 120.7409,20.42981 c -0.10471,11.273934 -0.81483,22.548868 -0.92153,33.824802 -0.1067,11.275934 0.56474,-0.001 0.84562,0"
           transform="matrix(2.0985996,0,0,2.0985996,-127.13239,-39.174243)"
           sodipodi:nodetypes="csc" />
        <path
           style="fill:none;stroke:#008fff;stroke-width:4.76508236;stroke-linecap:butt;stroke-linejoin:miter;stroke-miterlimit:4;stroke-dasharray:none;stroke-opacity:1"
           d="m 120.7409,20.42981 c -4.43371,-0.130751 -8.89387,1.567335 -12.11802,4.613607 -3.22415,3.046272 -5.17234,7.403001 -5.29314,11.836994 -0.1208,4.433993 1.58729,8.890335 4.64079,12.107636 3.0535,3.217301 7.41459,5.155715 11.84884,5.266565 0.28181,0.007 0.56381,0.007 0.84562,0"
           id="path883-7"
           inkscape:connector-curvature="0"
           inkscape:path-effect="#path-effect885-6"
           inkscape:original-d="m 120.7409,20.42981 c -0.10471,11.273934 -0.81483,22.548868 -0.92153,33.824802 -0.1067,11.275934 0.56474,-0.001 0.84562,0"
           transform="matrix(-2.0985996,0,0,2.0985996,305.4065,-39.174243)"
           sodipodi:nodetypes="csc" />
      </g>
      <g
         style="stroke:#181c2d;stroke-opacity:1"
         transform="matrix(1.0118601,0,0,0.91416938,-98.207142,3.5239572)"
         id="g1060"
         inkscape:export-xdpi="254.93462"
         inkscape:export-ydpi="254.93462">
        <g
           id="g1004"
           transform="matrix(1,0,0,1.2916466,90.635311,-74.553436)"
           style="stroke:#181c2d;stroke-width:10;stroke-miterlimit:4;stroke-dasharray:none;stroke-opacity:1">
          <path
             transform="matrix(1.410591,0,0,-1,-3.7010482,182.05565)"
             inkscape:original-d="m 92.072324,84.9503 c 4.473121,-0.06329 8.945236,-0.125572 13.416356,-0.186858 4.47112,-0.06129 0.001,0.04883 0,0.07474"
             inkscape:path-effect="#path-effect982"
             inkscape:connector-curvature="0"
             id="path980"
             d="m 92.072324,84.9503 c -0.03934,-1.765334 0.652484,-3.535859 1.878265,-4.806848 1.225781,-1.27099 2.970098,-2.026462 4.7357,-2.051052 1.765601,-0.02459 3.530281,0.682009 4.790981,1.918368 1.26071,1.236359 2.00157,2.986929 2.01141,4.752674 1.4e-4,0.02491 1.4e-4,0.04983 0,0.07474"
             style="fill:none;stroke:#181c2d;stroke-width:8.41975498;stroke-linecap:butt;stroke-linejoin:miter;stroke-miterlimit:4;stroke-dasharray:none;stroke-opacity:1" />
          <path
             transform="matrix(1.410591,0,0,-1,15.223942,182.16777)"
             inkscape:original-d="m 92.072324,84.9503 c 4.473121,-0.06329 8.945236,-0.125572 13.416356,-0.186858 4.47112,-0.06129 0.001,0.04883 0,0.07474"
             inkscape:path-effect="#path-effect982-6"
             inkscape:connector-curvature="0"
             id="path980-2"
             d="m 92.072324,84.9503 c -0.03934,-1.765334 0.652484,-3.535859 1.878265,-4.806848 1.225781,-1.27099 2.970098,-2.026462 4.7357,-2.051052 1.765601,-0.02459 3.530281,0.682009 4.790981,1.918368 1.26071,1.236359 2.00157,2.986929 2.01141,4.752674 1.4e-4,0.02491 1.4e-4,0.04983 0,0.07474"
             style="fill:none;stroke:#181c2d;stroke-width:8.41975498;stroke-linecap:butt;stroke-linejoin:miter;stroke-miterlimit:4;stroke-dasharray:none;stroke-opacity:1" />
        </g>
        <path
           style="fill:none;stroke:#181c2d;stroke-width:10;stroke-linecap:butt;stroke-linejoin:miter;stroke-miterlimit:4;stroke-dasharray:none;stroke-opacity:1"
           d="m 87.757462,103.23427 c 0.135726,-6.292997 0.203731,-12.587454 0.203999,-18.881914 10e-7,-0.02491 10e-7,-0.04983 0,-0.07474"
           id="path1014"
           inkscape:connector-curvature="0"
           inkscape:path-effect="#path-effect1016"
           inkscape:original-d="m 87.757462,103.23427 c 0.069,-6.29497 0.137,-12.588942 0.203999,-18.881914 0.067,-6.292972 0.001,-0.05083 0,-0.07474"
           transform="matrix(1.1882968,0,0,1.8358024,112.49213,-138.34477)" />
        <path
           style="fill:none;stroke:#181c2d;stroke-width:10;stroke-linecap:butt;stroke-linejoin:miter;stroke-miterlimit:4;stroke-dasharray:none;stroke-opacity:1"
           d="m 87.757462,103.23427 c 0.135726,-6.292997 0.203731,-12.587454 0.203999,-18.881914 10e-7,-0.02491 10e-7,-0.04983 0,-0.07474"
           id="path1014-1"
           inkscape:connector-curvature="0"
           inkscape:path-effect="#path-effect1016-9"
           inkscape:original-d="m 87.757462,103.23427 c 0.069,-6.29497 0.137,-12.588942 0.203999,-18.881914 0.067,-6.292972 0.001,-0.05083 0,-0.07474"
           transform="matrix(1.1829593,0,0,1.8359126,131.971,-138.35406)" />
        <path
           style="fill:none;stroke:#181c2d;stroke-width:10;stroke-linecap:butt;stroke-linejoin:miter;stroke-miterlimit:4;stroke-dasharray:none;stroke-opacity:1"
           d="m 87.757462,103.23427 c 0.135726,-6.292997 0.203731,-12.587454 0.203999,-18.881914 10e-7,-0.02491 10e-7,-0.04983 0,-0.07474"
           id="path1014-1-7"
           inkscape:connector-curvature="0"
           inkscape:path-effect="#path-effect1016-9-2"
           inkscape:original-d="m 87.757462,103.23427 c 0.069,-6.29497 0.137,-12.588942 0.203999,-18.881914 0.067,-6.292972 0.001,-0.05083 0,-0.07474"
           transform="matrix(1.1789179,0,0,1.8516538,151.21747,-139.68068)" />
      </g>
      <g
         id="text2982"
         style="font-style:normal;font-variant:normal;font-weight:normal;font-stretch:normal;line-height:0%;font-family:OldSansBlack;text-align:start;writing-mode:lr-tb;text-anchor:start;fill:#181c2d;fill-opacity:1;stroke:#181c2d;stroke-width:1px;stroke-linecap:butt;stroke-linejoin:miter;stroke-opacity:1"
         aria-label="N"
         transform="matrix(1.0005708,0,0,0.95536863,-6.1919262,2.4298699)"
         inkscape:export-xdpi="254.93462"
         inkscape:export-ydpi="254.93462">
        <path
           id="path187"
           style="font-size:61px;line-height:1;fill:#181c2d;fill-opacity:1;stroke:#181c2d;stroke-opacity:1"
           d="m 202.8304,62.683039 h 9.089 v -45.384 h -9.272 v 28.426 l -16.409,-28.426 h -9.821 v 45.384 h 9.272 v -29.768 z"
           inkscape:connector-curvature="0" />
      </g>
    </g>
  </g>
</svg>
