<?xml version="1.0" standalone="no"?>
<!DOCTYPE svg PUBLIC "-//W3C//DTD SVG 20010904//EN"
 "http://www.w3.org/TR/2001/REC-SVG-20010904/DTD/svg10.dtd">
<svg version="1.0" xmlns="http://www.w3.org/2000/svg"
 width="1006.000000pt" height="1006.000000pt" viewBox="0 0 1006.000000 1006.000000"
 preserveAspectRatio="xMidYMid meet">
<metadata>
Created by potrace 1.14, written by Peter Selinger 2001-2017
</metadata>
<g transform="translate(0.000000,1006.000000) scale(0.100000,-0.100000)"
fill="#000000" stroke="none">
<path d="M543 9042 c-17 -37 -41 -89 -53 -117 -12 -27 -30 -68 -40 -90 -21
-44 -54 -128 -76 -190 -8 -22 -19 -49 -24 -60 -5 -11 -28 -76 -50 -145 -23
-69 -44 -132 -48 -140 -8 -22 -8 -22 -16 -63 -5 -20 -12 -40 -17 -43 -5 -3 -7
-9 -4 -14 3 -5 -1 -24 -8 -42 -12 -29 -32 -102 -42 -154 -2 -11 -4 -20 -5 -21
-3 -3 -3 -3 -15 -58 -4 -22 -9 -44 -11 -50 -17 -69 -22 -100 -18 -107 3 -4 1
-8 -3 -8 -5 0 -9 -10 -10 -22 -1 -22 -16 -113 -28 -168 -6 -25 -12 -65 -20
-130 -3 -19 -6 -48 -9 -65 -32 -246 -40 -393 -40 -730 0 -355 9 -501 41 -690
2 -16 6 -46 9 -65 2 -19 5 -46 8 -60 2 -14 7 -43 11 -65 4 -22 16 -87 27 -145
11 -58 22 -114 24 -125 1 -11 3 -20 4 -20 1 0 3 -7 5 -15 9 -46 59 -245 76
-305 38 -136 43 -150 52 -162 5 -7 7 -13 4 -13 -6 0 74 -243 93 -285 13 -27
52 -128 54 -140 2 -5 13 -32 26 -60 12 -27 31 -68 41 -90 9 -22 34 -75 53
-117 20 -43 35 -79 34 -80 -2 -2 6 -16 18 -33 11 -16 26 -45 33 -62 8 -18 17
-33 22 -33 5 0 9 -9 9 -19 0 -11 3 -21 8 -23 4 -1 21 -28 37 -59 56 -106 119
-209 127 -209 4 0 8 -5 8 -11 0 -12 172 -272 191 -289 3 -3 25 -32 50 -65 24
-33 46 -62 49 -65 3 -3 21 -25 40 -50 19 -25 37 -47 40 -50 3 -3 18 -21 34
-40 139 -170 557 -590 587 -590 6 0 7 -4 4 -10 -3 -5 0 -10 7 -10 8 0 20 -9
28 -20 8 -11 20 -20 27 -20 7 0 13 -3 13 -8 0 -4 23 -25 51 -47 29 -22 63 -50
77 -62 14 -13 28 -23 31 -23 3 0 26 -18 51 -40 24 -22 48 -40 52 -40 4 0 17
-8 27 -18 32 -28 43 -36 141 -103 52 -35 97 -66 100 -70 3 -3 28 -19 57 -36
l51 -32 52 106 c28 59 52 115 53 125 1 10 5 18 9 18 4 0 8 9 8 20 0 11 5 20
10 20 6 0 9 3 8 8 -2 9 11 62 22 87 36 83 144 445 133 445 -3 0 0 6 6 14 10
11 4 20 -29 43 -23 15 -56 39 -74 53 -18 14 -48 36 -66 50 -18 14 -41 32 -50
40 -10 8 -33 27 -51 42 -19 14 -45 36 -59 48 -14 12 -52 45 -85 73 -81 70
-345 335 -425 426 -36 40 -69 79 -75 85 -5 6 -22 27 -37 48 -15 20 -33 42 -40
50 -7 7 -29 34 -48 58 -19 25 -38 47 -42 48 -4 2 -8 10 -8 18 0 8 -3 14 -8 14
-4 0 -18 18 -32 40 -14 22 -28 40 -32 40 -5 0 -8 5 -8 10 0 6 -17 34 -38 63
-35 48 -97 152 -132 222 -8 17 -18 32 -21 35 -9 7 -164 329 -180 373 -7 20
-16 37 -20 37 -4 0 -9 10 -12 23 -3 12 -28 81 -56 152 -28 72 -53 137 -55 145
-2 8 -8 28 -14 43 -7 16 -12 33 -12 38 0 5 -4 17 -9 27 -9 17 -12 28 -51 162
-12 41 -24 82 -27 90 -4 8 -6 18 -5 21 1 4 -7 38 -18 75 -10 38 -21 83 -23 99
-3 17 -10 53 -16 80 -26 123 -57 333 -66 445 -1 19 -6 80 -10 135 -14 177 -8
576 11 710 2 17 6 59 9 95 3 35 7 71 10 80 2 8 7 35 10 60 7 49 13 85 15 85 1
0 3 16 5 35 3 19 7 46 10 60 4 23 7 36 21 100 3 14 7 36 10 50 3 14 18 79 35
145 17 66 32 125 33 130 1 6 13 44 26 85 13 41 25 81 27 88 7 29 10 38 20 62
6 14 14 41 18 60 4 19 10 37 14 40 3 3 17 37 29 75 13 39 32 88 42 110 9 22
23 57 30 77 15 41 15 41 -95 133 -26 22 -67 56 -90 75 -22 19 -60 50 -83 68
-22 19 -50 41 -61 50 -23 20 -40 34 -186 148 -60 47 -128 99 -151 114 l-41 29
-30 -67z"/>
<path d="M9350 9022 c-58 -46 -106 -88 -108 -93 -2 -5 -10 -9 -17 -9 -7 0 -15
-3 -17 -7 -1 -5 -28 -28 -58 -53 -30 -25 -57 -47 -60 -50 -3 -3 -27 -23 -55
-45 -27 -21 -53 -44 -57 -50 -4 -5 -8 -7 -8 -3 0 4 -15 -7 -34 -25 -35 -33
-48 -43 -123 -100 -23 -18 -45 -38 -47 -45 -3 -7 14 -57 38 -110 24 -54 49
-116 56 -138 7 -21 16 -43 20 -49 5 -5 9 -13 9 -17 1 -5 1 -9 2 -10 0 -2 2
-10 5 -18 2 -8 18 -55 35 -105 55 -162 130 -439 144 -537 2 -15 6 -31 8 -35 4
-7 11 -47 23 -136 2 -15 6 -39 9 -55 3 -15 8 -45 11 -67 3 -22 7 -51 9 -65 13
-71 20 -264 20 -520 0 -252 -4 -346 -20 -520 -10 -112 -26 -231 -47 -345 -6
-33 -12 -69 -14 -80 -21 -128 -112 -484 -135 -528 -7 -12 -12 -23 -11 -25 4
-4 -11 -57 -21 -77 -6 -11 -12 -28 -14 -38 -7 -39 -119 -300 -194 -452 -166
-332 -354 -615 -607 -910 -122 -143 -425 -441 -552 -544 -14 -11 -32 -26 -40
-34 -8 -7 -49 -40 -90 -73 -41 -32 -77 -61 -80 -64 -3 -3 -23 -18 -45 -35 -22
-16 -42 -32 -45 -35 -3 -4 -13 -10 -23 -13 -22 -8 -17 -41 15 -113 10 -24 16
-49 13 -54 -3 -6 -1 -10 5 -10 6 0 9 -3 7 -8 -3 -4 3 -25 14 -46 10 -22 19
-47 19 -56 0 -9 4 -20 9 -26 5 -5 19 -40 32 -79 12 -38 25 -74 29 -80 4 -5 13
-28 20 -50 7 -22 16 -44 20 -50 4 -5 11 -21 15 -35 4 -14 15 -43 25 -65 9 -22
30 -71 45 -108 16 -37 31 -70 35 -72 5 -3 78 40 106 64 7 5 15 7 18 4 3 -4 6
-1 6 5 0 6 9 14 20 17 11 3 26 12 33 18 7 7 64 47 127 89 63 43 127 89 142
103 15 14 30 25 33 25 6 0 22 12 54 41 9 8 26 22 38 30 121 85 452 397 603
568 36 41 70 79 75 85 29 31 177 220 220 281 66 93 214 316 222 335 4 8 25 44
47 80 59 95 74 122 87 153 6 15 15 27 20 27 5 0 9 9 9 19 0 11 4 21 9 23 12 5
233 460 256 528 1 3 6 16 12 30 32 75 61 149 105 275 27 77 51 145 52 150 14
53 28 103 33 115 3 8 7 20 9 25 1 6 14 55 29 109 14 54 28 111 30 125 2 14 8
41 14 59 5 18 10 35 10 37 1 3 1 6 2 8 2 6 7 35 13 67 3 19 8 46 11 60 6 24
22 116 31 173 23 148 38 286 52 467 8 119 8 577 -1 730 -7 118 -9 142 -27 290
-6 47 -12 103 -15 125 -3 22 -7 49 -9 60 -2 11 -7 42 -10 68 -4 26 -11 71 -17
100 -6 29 -12 61 -13 72 -3 22 -25 128 -41 198 -3 12 -7 34 -10 48 -3 14 -16
68 -29 120 -14 52 -27 106 -30 119 -2 14 -12 50 -22 80 -10 30 -18 60 -20 66
-12 62 -114 333 -166 443 -28 58 -52 108 -53 111 -1 6 -29 59 -55 106 -79 139
-59 135 -180 36z"/>
<path d="M7482 7516 c-10 -14 -22 -23 -25 -20 -3 3 -8 -4 -12 -15 -3 -12 -10
-21 -14 -21 -13 0 -56 -42 -53 -52 1 -5 -1 -7 -5 -5 -5 3 -30 -15 -57 -39 -27
-24 -52 -44 -56 -44 -19 0 -60 -54 -55 -74 2 -11 6 -32 9 -46 3 -14 8 -36 11
-50 3 -14 8 -36 11 -50 5 -24 10 -52 18 -110 2 -14 5 -25 6 -25 0 0 3 -18 5
-40 2 -22 7 -67 11 -100 9 -81 12 -385 3 -385 -3 0 -3 -18 1 -39 4 -22 4 -44
0 -48 -5 -4 -11 -32 -14 -61 -3 -28 -9 -69 -12 -90 -7 -50 -43 -197 -60 -244
-7 -21 -10 -38 -7 -38 4 0 2 -5 -5 -12 -7 -7 -12 -19 -12 -29 0 -21 -91 -233
-102 -237 -4 -2 -8 -12 -8 -23 0 -10 -4 -19 -10 -19 -5 0 -10 -6 -10 -13 0 -7
-15 -39 -34 -70 -19 -31 -31 -57 -28 -57 4 0 2 -4 -3 -8 -6 -4 -35 -43 -64
-87 -30 -44 -64 -92 -75 -107 -12 -14 -29 -37 -39 -50 -27 -35 -97 -116 -142
-162 -22 -23 -57 -61 -77 -84 -21 -23 -38 -39 -38 -36 0 4 -14 -7 -31 -25
l-30 -32 17 -52 c9 -29 20 -56 24 -62 4 -5 13 -28 20 -50 7 -22 17 -42 21 -45
5 -3 10 -15 12 -25 2 -11 9 -31 17 -45 8 -14 15 -27 15 -30 1 -3 8 -20 16 -38
l14 -32 90 72 c125 101 119 95 199 173 39 39 87 90 106 114 19 24 40 49 45 55
6 6 26 31 45 56 19 25 39 48 45 52 6 5 6 8 0 8 -6 0 -5 3 1 8 16 10 139 194
181 271 20 36 41 69 45 72 5 3 10 16 11 27 1 12 4 22 7 22 6 0 31 51 85 173
14 32 22 63 19 69 -4 7 -2 8 4 4 7 -4 12 -1 12 9 0 8 4 23 9 33 12 20 48 130
55 163 3 13 10 40 16 59 7 19 13 44 15 55 2 11 7 31 10 45 3 14 8 36 11 50 2
14 7 36 9 50 26 136 35 247 34 435 0 192 -3 245 -10 245 -3 0 -6 15 -6 33 1
43 -11 145 -17 156 -3 4 -6 24 -8 44 -1 21 -5 37 -8 37 -3 0 -6 15 -7 33 -3
51 -68 304 -93 362 -5 11 -10 29 -12 39 -5 29 -24 30 -46 2z"/>
<path d="M2509 7502 c-26 -64 -60 -196 -55 -209 3 -8 2 -12 -3 -9 -9 6 -24
-55 -36 -144 -2 -14 -4 -25 -5 -25 -2 0 -9 -36 -15 -85 -26 -196 -26 -647 -1
-786 2 -11 7 -41 11 -69 12 -79 13 -86 31 -165 8 -41 20 -82 25 -92 5 -9 9
-27 9 -41 0 -13 3 -27 8 -31 4 -4 8 -12 8 -17 1 -5 2 -10 3 -11 2 -2 4 -14 7
-27 2 -13 13 -43 24 -67 10 -24 17 -44 14 -44 -2 0 3 -15 13 -32 9 -18 18 -38
19 -44 4 -22 105 -229 115 -235 6 -3 10 -9 10 -13 -2 -17 1 -24 19 -44 12 -12
18 -22 15 -22 -5 0 43 -78 55 -90 3 -3 11 -17 19 -32 8 -15 23 -37 33 -48 10
-11 16 -20 13 -20 -3 0 6 -12 20 -27 14 -15 25 -31 25 -34 0 -4 12 -21 28 -37
15 -17 34 -39 42 -50 70 -90 240 -268 252 -264 4 1 8 -5 8 -13 0 -8 3 -15 8
-15 4 0 38 -30 76 -65 39 -36 72 -65 75 -65 2 0 14 -9 26 -20 l21 -20 23 52
c13 29 32 72 42 95 10 24 19 47 19 52 0 5 7 22 14 38 22 42 37 86 39 116 1 9
4 17 8 17 4 0 -10 17 -30 38 -20 22 -39 37 -44 35 -4 -3 -6 0 -5 4 3 9 -17 33
-99 120 -24 25 -43 47 -43 49 0 5 -42 54 -87 101 -17 18 -29 33 -27 33 5 0
-31 43 -63 77 -12 13 -20 23 -18 23 2 0 -20 39 -49 88 -66 108 -174 326 -180
362 -1 3 -4 10 -7 15 -6 9 -41 110 -45 128 -1 4 -2 8 -4 10 -1 1 -3 9 -5 17
-2 8 -11 40 -19 70 -20 70 -46 194 -52 245 -5 44 -12 80 -14 80 -4 0 -9 139
-9 260 -1 128 0 149 14 270 4 33 8 72 9 88 0 15 3 27 6 27 3 0 7 12 8 28 2 25
4 39 17 95 3 12 8 38 11 57 3 19 9 36 14 38 19 7 -7 45 -74 109 -92 86 -138
123 -153 123 -7 0 -13 4 -13 8 0 5 -20 23 -45 40 l-46 32 -10 -28z"/>
<path d="M4815 7322 c-88 -36 -130 -59 -186 -102 -54 -41 -127 -115 -155 -155
-59 -85 -118 -220 -132 -299 -9 -53 -8 -251 1 -296 39 -181 146 -338 312 -454
22 -16 26 -2 -100 -406 -37 -118 -73 -235 -80 -260 -7 -25 -27 -92 -45 -150
-18 -58 -32 -105 -30 -105 2 0 -2 -10 -9 -23 -7 -13 -14 -32 -16 -42 -2 -10
-20 -72 -41 -137 -20 -65 -37 -120 -37 -123 0 -3 -10 -33 -23 -67 -12 -35 -20
-63 -18 -63 2 0 -1 -12 -7 -27 -6 -16 -12 -35 -14 -43 -2 -8 -13 -44 -25 -80
-12 -36 -23 -72 -25 -80 -4 -17 -75 -247 -83 -270 -3 -8 -6 -19 -8 -25 -1 -5
-15 -48 -30 -95 -15 -47 -29 -92 -31 -100 -5 -18 -5 -21 -28 -95 -11 -33 -20
-63 -21 -67 -1 -5 -3 -10 -4 -13 -1 -3 -3 -8 -4 -12 -5 -20 -51 -167 -74 -238
-14 -44 -27 -84 -28 -90 -1 -5 -12 -43 -24 -82 -12 -40 -22 -76 -22 -80 0 -5
-4 -14 -10 -20 -6 -7 -8 -13 -4 -13 4 0 0 -13 -9 -30 -9 -16 -13 -30 -10 -30
3 0 -1 -16 -9 -35 -9 -20 -15 -38 -16 -40 0 -3 0 -6 -1 -7 0 -2 -2 -10 -4 -18
-2 -8 -26 -89 -55 -180 -28 -91 -53 -173 -55 -182 -2 -9 -9 -26 -15 -37 -6
-12 -8 -21 -5 -21 2 0 -4 -24 -14 -52 -19 -57 -63 -196 -67 -213 -2 -13 -63
-210 -113 -370 -23 -71 -43 -137 -45 -146 -5 -20 -71 -236 -96 -314 -92 -284
-122 -398 -112 -421 11 -22 45 -36 112 -47 14 -2 32 -7 40 -10 8 -3 38 -9 65
-13 28 -4 57 -9 65 -11 8 -2 31 -5 50 -8 19 -2 35 -4 35 -5 0 -1 14 -4 30 -6
17 -2 46 -6 65 -9 61 -9 164 -20 275 -30 153 -14 481 -20 1150 -20 675 1 918
5 1095 20 110 9 177 16 200 20 14 2 54 7 90 11 36 3 74 8 85 11 11 2 38 6 60
8 22 2 49 6 60 8 11 2 43 8 70 12 28 5 52 9 55 10 3 0 22 4 43 8 20 5 53 21
71 38 l35 30 -16 47 c-15 49 -20 63 -21 72 -1 3 -13 39 -27 80 -14 41 -25 75
-24 75 1 0 -39 134 -96 315 -12 41 -35 116 -50 165 -15 50 -33 108 -40 130 -8
22 -28 87 -45 145 -17 58 -34 112 -37 120 -3 8 -7 20 -8 26 -5 23 -57 191 -68
219 -6 17 -12 35 -13 41 -1 7 -18 65 -39 130 -61 199 -85 276 -107 349 -11 39
-24 79 -28 90 -5 11 -23 67 -40 125 -63 212 -132 436 -149 490 -10 30 -24 75
-31 100 -7 25 -16 54 -20 65 -11 25 -31 92 -34 108 -1 7 -5 18 -9 25 -5 6 -6
12 -2 12 3 0 1 9 -5 21 -6 11 -13 28 -15 37 -2 9 -12 46 -23 82 -12 36 -39
126 -62 200 -23 74 -45 146 -50 160 -8 24 -73 229 -75 240 -1 3 -8 25 -15 50
-7 25 -14 47 -15 50 -3 14 -50 163 -67 214 -11 32 -21 63 -22 70 -2 6 -11 38
-21 71 -10 33 -20 65 -21 70 -2 6 -19 62 -39 125 -20 63 -38 120 -39 125 -2 6
-6 17 -9 25 -7 20 -28 88 -31 103 -2 7 -6 19 -9 27 -3 8 -23 70 -43 138 l-36
122 62 58 c131 120 166 161 209 249 47 95 59 158 55 290 -4 150 -7 171 -33
266 -35 127 -83 210 -172 299 -44 43 -84 78 -89 78 -6 0 -27 10 -48 23 -30 19
-112 51 -157 62 -5 1 -21 5 -35 8 -54 14 -100 18 -220 23 -120 4 -128 3 -195
-24z"/>
</g>
</svg>
